<?xml version="1.0" encoding="UTF-8"?>
<svg version="1.1" xmlns="http://www.w3.org/2000/svg" width="276" height="276">
<path d="M0 0 C0.69303223 0.17160645 1.38606445 0.34321289 2.10009766 0.52001953 C12.67263545 3.18278563 22.3007504 7.05636879 32 12 C32.97582031 12.48339844 33.95164063 12.96679688 34.95703125 13.46484375 C46.21683521 19.27999286 55.82352246 27.34007914 65 36 C65.73734375 36.67289063 66.4746875 37.34578125 67.234375 38.0390625 C89.79505045 59.39970203 104.63560481 92.23662508 106.16113281 123.27880859 C106.53389544 153.19084231 106.53389544 153.19084231 103 167 C102.82839355 167.69303223 102.65678711 168.38606445 102.47998047 169.10009766 C99.81721437 179.67263545 95.94363121 189.3007504 91 199 C90.51660156 199.97582031 90.03320312 200.95164063 89.53515625 201.95703125 C83.72000714 213.21683521 75.65992086 222.82352246 67 232 C66.32710937 232.73734375 65.65421875 233.4746875 64.9609375 234.234375 C43.60029797 256.79505045 10.76337492 271.63560481 -20.27880859 273.16113281 C-50.19084231 273.53389544 -50.19084231 273.53389544 -64 270 C-64.69303223 269.82839355 -65.38606445 269.65678711 -66.10009766 269.47998047 C-76.67263545 266.81721437 -86.3007504 262.94363121 -96 258 C-96.97582031 257.51660156 -97.95164062 257.03320312 -98.95703125 256.53515625 C-110.21683521 250.72000714 -119.82352246 242.65992086 -129 234 C-129.73734375 233.32710937 -130.4746875 232.65421875 -131.234375 231.9609375 C-153.79505045 210.60029797 -168.63560481 177.76337492 -170.16113281 146.72119141 C-170.53389544 116.80915769 -170.53389544 116.80915769 -167 103 C-166.82839355 102.30696777 -166.65678711 101.61393555 -166.47998047 100.89990234 C-163.81721437 90.32736455 -159.94363121 80.6992496 -155 71 C-154.51660156 70.02417969 -154.03320312 69.04835938 -153.53515625 68.04296875 C-147.72000714 56.78316479 -139.65992086 47.17647754 -131 38 C-130.32710937 37.26265625 -129.65421875 36.5253125 -128.9609375 35.765625 C-97.37902608 2.40944889 -44.18258262 -11.30674519 0 0 Z " fill="#FEFEFE" transform="translate(170,3)"/>
<path d="M0 0 C1.17755859 -0.00386719 2.35511719 -0.00773437 3.56835938 -0.01171875 C5.24188477 -0.00978516 5.24188477 -0.00978516 6.94921875 -0.0078125 C8.46068481 -0.00612061 8.46068481 -0.00612061 10.00268555 -0.00439453 C12.3125 0.125 12.3125 0.125 13.3125 1.125 C13.41357529 2.52809718 13.44600859 3.93621549 13.45053101 5.34294128 C13.45598434 6.25278778 13.46143768 7.16263428 13.46705627 8.10005188 C13.4680986 9.10626083 13.46914093 10.11246979 13.47021484 11.14916992 C13.47529556 12.20281738 13.48037628 13.25646484 13.48561096 14.34204102 C13.49634222 16.63925014 13.5049515 18.93646989 13.51173019 21.23369408 C13.52348128 24.86901252 13.54292537 28.50421011 13.56484985 32.13948059 C13.62658575 42.47876973 13.68049549 52.81804815 13.71386719 63.1574707 C13.73480755 69.47403969 13.77011085 75.79039141 13.81462479 82.10683632 C13.82879533 84.5161413 13.83750959 86.92548476 13.84067917 89.33482933 C13.84558521 92.70806984 13.86873779 96.08073392 13.89599609 99.45385742 C13.89298996 100.44994522 13.88998383 101.44603302 13.8868866 102.4723053 C13.95042665 107.76461811 14.29580021 111.57662488 17.3125 116.125 C20.55656162 118.92668958 22.54744 120.0293675 26.8125 120.5625 C31.85184921 119.93258135 36.10152477 118.18096872 39.3125 114.125 C40.24186632 111.33690105 40.44683533 109.62309232 40.47071838 106.74006653 C40.4805072 105.84404221 40.49029602 104.94801788 40.50038147 104.02484131 C40.50613693 103.04444885 40.5118924 102.0640564 40.51782227 101.05395508 C40.52772186 100.01963852 40.53762146 98.98532196 40.54782104 97.91966248 C40.57945462 94.49464216 40.60420091 91.06960797 40.62890625 87.64453125 C40.64947417 85.27226904 40.67047059 82.90001051 40.69187927 80.52775574 C40.74711668 74.2790118 40.79651865 68.0302347 40.84472656 61.78143311 C40.89492936 55.40699303 40.95062181 49.03260121 41.00585938 42.65820312 C41.11346139 30.1471769 41.21508821 17.6361095 41.3125 5.125 C47.34514065 5.85653013 52.86709002 6.92919128 58.6875 8.6875 C59.54585449 8.94490967 60.40420898 9.20231934 61.28857422 9.4675293 C70.99157083 12.48760255 80.22987491 16.58368746 89.3125 21.125 C89.38234604 32.22656039 89.43548573 43.32806757 89.46793652 54.42980385 C89.48351981 59.58609464 89.50462235 64.74223389 89.53881836 69.8984375 C89.57167561 74.88460126 89.58940802 79.87062025 89.59713173 84.856884 C89.60262831 86.74885712 89.61336018 88.64082329 89.62969017 90.53273392 C89.74406355 104.34655119 89.36147334 117.79087164 82.75 130.3125 C82.23010498 131.31228882 82.23010498 131.31228882 81.69970703 132.33227539 C73.6268112 147.1814677 59.80092339 157.48363516 43.6953125 162.30859375 C26.58527913 166.02587996 9.40268975 163.78749688 -5.5625 154.8125 C-20.36489123 144.62212978 -30.07207896 131.64209339 -33.70353413 113.84567165 C-35.53427295 103.65180479 -35.05463655 93.22480756 -34.98046875 82.91015625 C-34.97486195 80.59989194 -34.97059699 78.28962403 -34.96760559 75.97935486 C-34.95624215 69.94766096 -34.92684955 63.91618953 -34.89349365 57.88458252 C-34.86260795 51.71019498 -34.849061 45.53577092 -34.83398438 39.36132812 C-34.80197055 27.28245524 -34.75087896 15.20374624 -34.6875 3.125 C-33.25082834 2.79863335 -31.81371528 2.47420933 -30.37641907 2.15060425 C-29.57617467 1.96973204 -28.77593027 1.78885983 -27.95143604 1.60250664 C-18.83147169 -0.32106516 -9.27297423 -0.03159446 0 0 Z " fill="#1D60AD" transform="translate(136.6875,48.875)"/>
<path d="M0 0 C0.00586624 1.24233398 0.01173248 2.48466797 0.01777649 3.76464844 C0.07525086 15.53270422 0.14813938 27.30057959 0.23571491 39.06845093 C0.28024259 45.11690919 0.31953661 51.1653028 0.34643555 57.21386719 C0.37264522 63.06251393 0.41316981 68.91090954 0.46318626 74.75939941 C0.4797364 76.97901256 0.49132381 79.19866903 0.49761391 81.41833496 C0.57560273 106.43360108 3.66961205 129.63162624 21.5234375 148.6796875 C35.80057182 162.05605624 55.46387975 166.6829284 74.53515625 166.22265625 C91.97829428 165.10173306 106.77782355 158.47118514 119 146 C121.94264339 142.49916447 124.46599357 138.80100964 127 135 C127.99 135.33 128.98 135.66 130 136 C125.12901314 154.83448252 110.17724046 169.75618352 94.0078125 179.71875 C81.44172344 187.06297243 68.1000145 191.61657737 54 195 C53.15050781 195.20753906 52.30101562 195.41507813 51.42578125 195.62890625 C44.29621303 196.71958094 38.74177303 195.29915135 32.0625 193 C31.13880615 192.68530762 30.2151123 192.37061523 29.26342773 192.04638672 C10.05816633 185.30670881 -6.45585 175.17345952 -21 161 C-21.96486328 160.14535156 -21.96486328 160.14535156 -22.94921875 159.2734375 C-38.28611657 145.33080312 -47.30140155 122.44265924 -48.34729004 102.01657104 C-48.50657412 96.56102659 -48.45175907 91.10905773 -48.390625 85.65234375 C-48.38314265 83.65882441 -48.37745918 81.66529759 -48.37347412 79.67176819 C-48.35837453 74.48500403 -48.31923252 69.29870496 -48.2746582 64.11212158 C-48.23336258 58.7955148 -48.21539069 53.47883112 -48.1953125 48.16210938 C-48.15271929 37.7745379 -48.08466388 27.38730798 -48 17 C-45.81766742 15.8829328 -43.63265132 14.77173535 -41.44580078 13.66357422 C-40.83783157 13.3516362 -40.22986237 13.03969818 -39.60346985 12.7183075 C-33.23778299 9.50347106 -26.67102625 7.28391662 -19.875 5.125 C-18.08835937 4.54105469 -18.08835937 4.54105469 -16.265625 3.9453125 C-4.12830946 0 -4.12830946 0 0 0 Z " fill="#1D60AC" transform="translate(93,53)"/>
</svg>
